<svg width="49" height="37" viewBox="0 0 49 37" fill="none" xmlns="http://www.w3.org/2000/svg">
<g id="Gmail_2020 1" clip-path="url(#clip0_234_39)">
<rect id="Rectangle 17" x="5" width="39" height="37" fill="white"/>
<g id="g18">
<path id="path8" d="M3.34083 37H11.1367V17.9383L0 9.52917V33.6364C0 34.5284 0.35198 35.384 0.978507 36.0148C1.60504 36.6456 2.45479 37 3.34083 37Z" fill="#4285F4"/>
<path id="path10" d="M37.8633 37H45.6592C46.5452 37 47.395 36.6456 48.0215 36.0148C48.648 35.384 49 34.5284 49 33.6364V9.52917L37.8633 17.9383V37Z" fill="#34A853"/>
<path id="path12" d="M37.8633 3.36364V17.9383L49 9.52918V5.04546C49 4.10846 48.7409 3.18997 48.2516 2.3929C47.7623 1.59584 47.0623 0.951705 46.2299 0.532665C45.3975 0.113626 44.4656 -0.0637585 43.5387 0.0203895C42.6118 0.104537 41.7265 0.446893 40.982 1.00909L37.8633 3.36364Z" fill="#FBBC04"/>
<path id="path14" fill-rule="evenodd" clip-rule="evenodd" d="M11.1367 17.9383V3.36365L24.5 13.4546L37.8633 3.36365V17.9383L24.5 28.0292L11.1367 17.9383Z" fill="#EA4335"/>
<path id="path16" d="M0 5.04543V9.52915L11.1367 17.9382V3.36361L8.018 1.00906C7.27348 0.446862 6.38818 0.104507 5.46129 0.020359C4.5344 -0.063789 3.60255 0.113595 2.77015 0.532635C1.93775 0.951674 1.2377 1.59581 0.748426 2.39287C0.259155 3.18993 0 4.10843 0 5.04543Z" fill="#C5221F"/>
</g>
</g>
<defs>
<clipPath id="clip0_234_39">
<rect width="49" height="37" fill="white"/>
</clipPath>
</defs>
</svg>
